<?xml version="1.0" encoding="UTF-8"?><svg id="Layer_2" xmlns="http://www.w3.org/2000/svg" viewBox="0 0 100 100"><defs><style>.cls-1{fill:#fff;stroke-width:0px;}</style></defs><g id="Layer_1-2"><path class="cls-1" d="m7.51,51.3c.97-.81,1.71-1.54,2.18-2.15.64-.83.86-1.53.68-2.13-.09-.31-.29-.57-.57-.78-.25-.18-.58-.31-.98-.4-.69-.15-1.68-.17-2.92-.07-.38.03-.66.36-.62.74.02.18.1.35.24.46.14.12.32.17.5.16,1.11-.1,1.95-.08,2.51.04.47.1.53.23.53.23,0,0,.04.18-.26.64-.38.58-1.11,1.32-2.16,2.2-1.48,1.23-3.58,2.73-6.25,4.45.63-.58,1.22-1.15,1.78-1.72,2.24-2.3,3.08-3.71,3.12-3.77l.05-.08.02-.09c.01-.06.06-.26.02-.54-.05-.37-.22-.71-.5-.97-.29-.27-.68-.46-1.17-.57-.45-.1-.99-.12-1.61-.08-.61.04-1.31.15-2.1.33v1.41c1.01-.24,1.89-.38,2.57-.39.94-.01,1.26.2,1.36.29.05.05.07.09.08.13-.25.38-1.11,1.62-2.85,3.4-.33.34-.73.73-1.16,1.14v3.38c.24-.15.47-.3.71-.45,2.92-1.86,5.2-3.48,6.8-4.82Z"/><path class="cls-1" d="m6.37,39.04c.14-.11.24-.27.26-.46.02-.18-.03-.36-.14-.5-.11-.14-.27-.24-.46-.26-.18-.02-.36.03-.5.14-.03.02-2.82,2.2-5.5,4.55,0,0-.02.02-.03.02v1.83c.3-.27.6-.54.93-.83,2.63-2.3,5.41-4.47,5.44-4.5Z"/><path class="cls-1" d="m55.32,99.12l.02-.09c.01-.06.06-.26.02-.54-.05-.37-.22-.71-.5-.97-.29-.27-.68-.46-1.17-.57-.45-.1-.99-.12-1.61-.08-1.2.08-2.76.42-4.65,1.02-.51.16-.85.23-1.07.26.15-.24.44-.64,1-1.26.81-.88,2-2.02,3.54-3.37,2.63-2.3,5.41-4.47,5.44-4.5.14-.11.24-.27.26-.46.02-.18-.03-.36-.14-.5-.11-.14-.27-.24-.46-.26-.18-.02-.36.03-.5.14-.03.02-2.82,2.2-5.5,4.55-1.58,1.38-2.81,2.55-3.65,3.47-.61.66-1.01,1.19-1.25,1.63-.29.54-.34.99-.15,1.36.11.2.27.36.49.45.18.08.4.12.66.12h0c.43,0,.98-.11,1.73-.35,2-.63,3.58-.96,4.71-.97.94-.01,1.26.2,1.36.29.05.05.07.09.08.13-.14.21-.47.68-1.02,1.36h1.74c.36-.48.53-.77.54-.79l.05-.08Z"/><path class="cls-1" d="m39.89,10.92s-.05.05-.08.08c-.03.03-.07.06-.1.09-.03.04-.04.08-.06.12-.02.04-.04.08-.05.12-.01.04,0,.09-.01.13,0,.04,0,.09,0,.13,0,.04.03.09.04.13.01.04.01.07.03.11,0,0,.01,0,.01.01,0,0,0,.02.01.03.04.06.1.1.16.15.03.02.05.06.08.08.1.06.22.09.34.09,0,0,0,0,0,0,.11,0,.23-.03.33-.08.05-.03,5.18-2.84,10.12-5.99,2.92-1.86,5.2-3.48,6.8-4.82.55-.46,1.02-.9,1.42-1.3h-2.01c-.1.08-.18.16-.28.25-1.48,1.23-3.58,2.73-6.25,4.45.63-.58,1.22-1.15,1.78-1.72,1.28-1.32,2.1-2.33,2.57-2.98h-1.74c-.45.55-1.05,1.24-1.83,2.04-1.99,2.04-5.56,5.24-11.27,8.88Z"/><path class="cls-1" d="m96.38,45.98c-.61.66-1.01,1.19-1.25,1.63-.29.54-.34.99-.15,1.36.11.2.27.36.49.45.18.08.4.12.66.12h0c.43,0,.98-.11,1.73-.35.78-.25,1.48-.43,2.14-.59v-1.41c-.77.17-1.62.4-2.55.69-.51.16-.85.23-1.07.26.15-.24.44-.64,1-1.26.64-.7,1.52-1.55,2.62-2.54v-1.83c-1.57,1.37-2.79,2.53-3.62,3.45Z"/><path class="cls-1" d="m89.81,61s-.07.06-.1.09c-.03.04-.04.08-.06.12-.02.04-.04.08-.05.12-.01.04,0,.09-.01.13,0,.04,0,.09,0,.13,0,.04.03.09.04.13.01.04.01.07.03.11,0,0,.01,0,.01.01,0,0,0,.02.01.03.04.06.1.1.16.15.03.02.05.06.08.08.1.06.22.09.34.09,0,0,0,0,0,0,.11,0,.23-.03.33-.08.05-.03,4.7-2.57,9.41-5.54v-3.38c-2.11,2-5.36,4.71-10.11,7.74-.03.02-.05.05-.08.08Z"/><path class="cls-1" d="m60.36,97.01c-.09-.31-.29-.57-.57-.78-.25-.18-.58-.31-.98-.4-.69-.15-1.68-.17-2.92-.07-.38.03-.66.36-.62.74.02.18.1.35.24.46.14.12.32.17.5.16,1.11-.1,1.95-.08,2.51.04.47.1.53.23.53.23,0,0,.04.18-.26.64-.34.53-.98,1.19-1.88,1.96h2.01c.3-.3.56-.59.76-.85.64-.83.86-1.53.68-2.13Z"/></g></svg>